<svg width="20" height="20" viewBox="0 0 20 20" fill="none" xmlns="http://www.w3.org/2000/svg">
<path d="M6.5625 0.15625C4.58125 0.15625 2.96875 1.76875 2.96875 3.75V16.25C2.96875 18.2313 4.58125 19.8438 6.5625 19.8438H13.4375C15.4187 19.8438 17.0312 18.2313 17.0312 16.25V3.75C17.0312 1.76875 15.4187 0.15625 13.4375 0.15625H6.5625ZM6.5625 1.09375H13.4375C14.9016 1.09375 16.0938 2.28594 16.0938 3.75V16.25C16.0938 17.7141 14.9016 18.9062 13.4375 18.9062H6.5625C5.09844 18.9062 3.90625 17.7141 3.90625 16.25V3.75C3.90625 2.28594 5.09844 1.09375 6.5625 1.09375ZM9.21875 2.34375C8.95937 2.34375 8.75 2.55312 8.75 2.8125C8.75 3.07188 8.95937 3.28125 9.21875 3.28125H10.7812C11.0406 3.28125 11.25 3.07188 11.25 2.8125C11.25 2.55312 11.0406 2.34375 10.7812 2.34375H9.21875Z" fill="#76501D"/>
</svg>
