<?xml version="1.0" encoding="utf-8"?><svg viewBox="0 0 20 20" xmlns="http://www.w3.org/2000/svg" xmlns:xlink="http://www.w3.org/1999/xlink"><style>:root>svg{display:none}:root>svg:target{display:block}</style><svg fill="none" viewBox="0 0 20 20" id="phone" xmlns="http://www.w3.org/2000/svg"><path d="M6.563.156A3.598 3.598 0 002.969 3.75v12.5a3.598 3.598 0 003.594 3.594h6.875a3.598 3.598 0 003.593-3.594V3.75A3.598 3.598 0 0013.438.156H6.561zm0 .938h6.875a2.66 2.66 0 012.656 2.656v12.5a2.66 2.66 0 01-2.657 2.656H6.564a2.66 2.66 0 01-2.657-2.656V3.75a2.66 2.66 0 012.656-2.656zm2.656 1.25a.468.468 0 100 .937h1.562a.468.468 0 100-.937H9.22z" fill="#76501D"/></svg><svg fill="none" viewBox="0 0 20 20" id="phone_copy" xmlns="http://www.w3.org/2000/svg"><path d="M6.563.156A3.598 3.598 0 002.969 3.75v12.5a3.598 3.598 0 003.594 3.594h6.875a3.598 3.598 0 003.593-3.594V3.75A3.598 3.598 0 0013.438.156H6.561zm0 .938h6.875a2.66 2.66 0 012.656 2.656v12.5a2.66 2.66 0 01-2.657 2.656H6.564a2.66 2.66 0 01-2.657-2.656V3.75a2.66 2.66 0 012.656-2.656zm2.656 1.25a.468.468 0 100 .937h1.562a.468.468 0 100-.937H9.22z" fill="#76501D"/></svg><svg fill="none" viewBox="0 0 20 20" id="phone_copy_2" xmlns="http://www.w3.org/2000/svg"><path d="M6.563.156A3.598 3.598 0 002.969 3.75v12.5a3.598 3.598 0 003.594 3.594h6.875a3.598 3.598 0 003.593-3.594V3.75A3.598 3.598 0 0013.438.156H6.561zm0 .938h6.875a2.66 2.66 0 012.656 2.656v12.5a2.66 2.66 0 01-2.657 2.656H6.564a2.66 2.66 0 01-2.657-2.656V3.75a2.66 2.66 0 012.656-2.656zm2.656 1.25a.468.468 0 100 .937h1.562a.468.468 0 100-.937H9.22z" fill="#76501D"/></svg></svg>